<svg width="309" height="48" viewBox="0 0 309 48" fill="none" xmlns="http://www.w3.org/2000/svg">
<rect x="1" y="1" width="307" height="46" rx="3" fill="#393A3D" fill-opacity="0.1"/>
<path d="M38.5821 18C37.5021 16.98 35.8821 16.48 34.4621 16.48C31.9021 16.48 29.2821 17.76 29.2821 20.64C29.2821 23.28 31.1421 24.12 32.8621 24.66C34.6421 25.22 36.1221 25.64 36.1221 27.12C36.1221 28.64 34.7421 29.22 33.5621 29.22C32.4421 29.22 31.1621 28.62 30.4621 27.66L28.6621 29.34C29.7821 30.66 31.6821 31.36 33.5221 31.36C36.3021 31.36 38.6821 29.88 38.6821 26.84C38.6821 24.06 36.3621 23.26 34.5421 22.7C32.9421 22.2 31.8421 21.82 31.8421 20.52C31.8421 19.14 33.1821 18.58 34.3421 18.58C35.3421 18.58 36.4021 19.1 36.9421 19.8L38.5821 18ZM42.9265 25.24C43.0265 23.9 44.1665 22.92 45.5865 22.92C47.1465 22.92 47.8465 24 47.8465 25.24H42.9265ZM50.2465 26.32C50.2465 22.86 48.2865 21.12 45.6065 21.12C42.7065 21.12 40.5265 23.16 40.5265 26.26C40.5265 29.38 42.7265 31.28 45.6865 31.28C47.5065 31.28 48.8665 30.64 49.8065 29.36L48.2065 28.08C47.6665 28.84 46.8665 29.32 45.6665 29.32C44.2665 29.32 43.0265 28.32 42.9265 26.96H50.2265C50.2465 26.74 50.2465 26.54 50.2465 26.32ZM65.7709 22.62C65.0109 21.68 63.5509 21.12 62.1509 21.12C59.3309 21.12 57.0109 23.08 57.0109 26.2C57.0109 29.4 59.3709 31.28 62.2109 31.28C63.6309 31.28 64.9509 30.8 65.7509 29.94L64.2509 28.42C63.7909 28.98 62.9709 29.28 62.2309 29.28C60.4109 29.28 59.5109 27.7 59.5109 26.2C59.5109 24.7 60.3909 23.12 62.1509 23.12C62.9309 23.12 63.7509 23.52 64.1309 24.06L65.7709 22.62ZM66.7765 26.16C66.7765 29.18 69.0965 31.28 71.9965 31.28C74.8965 31.28 77.2165 29.18 77.2165 26.16C77.2165 23.14 74.8965 21.12 71.9965 21.12C69.0965 21.12 66.7765 23.14 66.7765 26.16ZM69.2165 26.16C69.2165 24.66 70.0965 23.08 71.9965 23.08C73.8965 23.08 74.7765 24.66 74.7765 26.16C74.7765 27.66 73.8965 29.28 71.9965 29.28C70.0965 29.28 69.2165 27.66 69.2165 26.16ZM79.5435 31H81.9435V25.72C81.9435 24.44 82.6635 23.12 84.1835 23.12C85.7235 23.12 85.9835 24.54 85.9835 25.68V31H88.3835V25C88.3835 23.04 87.3435 21.12 84.8435 21.12C83.4235 21.12 82.2835 21.98 81.8635 22.94H81.8235V21.4H79.5435V31ZM91.1841 31H93.5841V25.72C93.5841 24.44 94.3041 23.12 95.8241 23.12C97.3641 23.12 97.6241 24.54 97.6241 25.68V31H100.024V25C100.024 23.04 98.9841 21.12 96.4841 21.12C95.0641 21.12 93.9241 21.98 93.5041 22.94H93.4641V21.4H91.1841V31ZM104.665 25.24C104.765 23.9 105.905 22.92 107.325 22.92C108.885 22.92 109.585 24 109.585 25.24H104.665ZM111.985 26.32C111.985 22.86 110.025 21.12 107.345 21.12C104.445 21.12 102.265 23.16 102.265 26.26C102.265 29.38 104.465 31.28 107.425 31.28C109.245 31.28 110.605 30.64 111.545 29.36L109.945 28.08C109.405 28.84 108.605 29.32 107.405 29.32C106.005 29.32 104.765 28.32 104.665 26.96H111.965C111.985 26.74 111.985 26.54 111.985 26.32ZM122.509 22.62C121.749 21.68 120.289 21.12 118.889 21.12C116.069 21.12 113.749 23.08 113.749 26.2C113.749 29.4 116.109 31.28 118.949 31.28C120.369 31.28 121.689 30.8 122.489 29.94L120.989 28.42C120.529 28.98 119.709 29.28 118.969 29.28C117.149 29.28 116.249 27.7 116.249 26.2C116.249 24.7 117.129 23.12 118.889 23.12C119.669 23.12 120.489 23.52 120.869 24.06L122.509 22.62ZM124.375 23.32V27.8C124.375 29.64 124.955 31.2 127.495 31.2C128.035 31.2 128.675 31.1 129.095 30.94L129.015 29.06C128.735 29.2 128.315 29.26 127.995 29.26C126.935 29.26 126.735 28.64 126.735 27.78V23.32H129.135V21.4H126.735V18.62H124.375V21.4H122.695V23.32H124.375ZM132.712 25.24C132.812 23.9 133.952 22.92 135.372 22.92C136.932 22.92 137.632 24 137.632 25.24H132.712ZM140.032 26.32C140.032 22.86 138.072 21.12 135.392 21.12C132.492 21.12 130.312 23.16 130.312 26.26C130.312 29.38 132.512 31.28 135.472 31.28C137.292 31.28 138.652 30.64 139.592 29.36L137.992 28.08C137.452 28.84 136.652 29.32 135.452 29.32C134.052 29.32 132.812 28.32 132.712 26.96H140.012C140.032 26.74 140.032 26.54 140.032 26.32ZM142.356 31H144.756V25.86C144.756 25.16 145.176 23.28 147.336 23.28C147.556 23.28 147.756 23.3 148.076 23.38V21.18C147.916 21.14 147.676 21.12 147.496 21.12C146.236 21.12 145.216 21.9 144.696 23H144.656V21.4H142.356V31ZM160.601 31H162.841V25.16C162.841 23.24 162.001 21.12 158.561 21.12C157.101 21.12 155.581 21.64 154.501 22.64L155.741 24.1C156.361 23.48 157.341 23 158.361 23C159.561 23 160.561 23.58 160.561 24.76V25C157.561 25 153.961 25.4 153.961 28.26C153.961 30.5 156.021 31.24 157.561 31.24C158.921 31.24 160.061 30.62 160.541 29.78H160.601V31ZM160.561 26.96C160.561 28.48 159.681 29.42 158.041 29.42C157.221 29.42 156.361 29.14 156.361 28.22C156.361 26.8 158.501 26.62 160.021 26.62H160.561V26.96ZM157.921 16.84H155.201L158.021 19.72H159.901L157.921 16.84ZM186.017 28.96H182.517V28.92C183.777 28.02 185.037 26.28 185.037 23.74C185.037 19.44 181.857 16.48 177.517 16.48C173.177 16.48 169.937 19.44 169.937 23.74C169.937 28.34 172.957 31 177.477 31H186.017V28.96ZM177.517 18.74C180.377 18.74 182.297 20.86 182.297 23.74C182.297 26.76 180.277 28.8 177.477 28.8C174.637 28.8 172.697 26.76 172.697 23.74C172.697 20.86 174.777 18.74 177.517 18.74ZM196.429 21.4H194.029V26.68C194.029 27.96 193.309 29.28 191.789 29.28C190.249 29.28 189.989 27.86 189.989 26.72V21.4H187.589V27.4C187.589 29.36 188.629 31.28 191.129 31.28C192.549 31.28 193.689 30.42 194.109 29.46H194.149V31H196.429V21.4ZM199.349 31H201.749V21.4H199.349V31ZM199.009 18.14C199.009 18.9 199.649 19.58 200.529 19.58C201.409 19.58 202.089 18.96 202.089 18.14C202.089 17.32 201.409 16.7 200.529 16.7C199.649 16.7 199.009 17.38 199.009 18.14ZM212.861 22.62C212.101 21.68 210.641 21.12 209.241 21.12C206.421 21.12 204.101 23.08 204.101 26.2C204.101 29.4 206.461 31.28 209.301 31.28C210.721 31.28 212.041 30.8 212.841 29.94L211.341 28.42C210.881 28.98 210.061 29.28 209.321 29.28C207.501 29.28 206.601 27.7 206.601 26.2C206.601 24.7 207.481 23.12 209.241 23.12C210.021 23.12 210.841 23.52 211.221 24.06L212.861 22.62ZM214.466 31H216.866V26.08H216.926L220.726 31H223.906L219.486 25.74L223.646 21.4H220.566L216.926 25.44H216.866V15.88H214.466V31ZM225.406 31H230.506C233.186 31 235.866 29.96 235.866 26.88C235.866 24.98 234.586 23.78 232.806 23.54V23.5C234.266 23.06 235.266 22 235.266 20.4C235.266 17.82 233.066 16.84 230.926 16.84H225.406V31ZM227.926 18.92H229.946C231.846 18.92 232.746 19.42 232.746 20.68C232.746 21.9 231.846 22.6 230.166 22.6H227.926V18.92ZM227.926 24.76H230.286C232.326 24.76 233.346 25.28 233.346 26.76C233.346 28.62 231.486 28.88 230.186 28.88H227.926V24.76ZM237.675 26.16C237.675 29.18 239.995 31.28 242.895 31.28C245.795 31.28 248.115 29.18 248.115 26.16C248.115 23.14 245.795 21.12 242.895 21.12C239.995 21.12 237.675 23.14 237.675 26.16ZM240.115 26.16C240.115 24.66 240.995 23.08 242.895 23.08C244.795 23.08 245.675 24.66 245.675 26.16C245.675 27.66 244.795 29.28 242.895 29.28C240.995 29.28 240.115 27.66 240.115 26.16ZM249.882 26.16C249.882 29.18 252.202 31.28 255.102 31.28C258.002 31.28 260.322 29.18 260.322 26.16C260.322 23.14 258.002 21.12 255.102 21.12C252.202 21.12 249.882 23.14 249.882 26.16ZM252.322 26.16C252.322 24.66 253.202 23.08 255.102 23.08C257.002 23.08 257.882 24.66 257.882 26.16C257.882 27.66 257.002 29.28 255.102 29.28C253.202 29.28 252.322 27.66 252.322 26.16ZM262.689 31H265.089V26.08H265.149L268.949 31H272.129L267.709 25.74L271.869 21.4H268.789L265.149 25.44H265.089V15.88H262.689V31ZM280.211 22.58C279.431 21.6 277.991 21.12 276.611 21.12C274.711 21.12 272.791 22.04 272.791 24.18C272.791 25.98 274.211 26.56 275.631 26.9C277.091 27.24 277.831 27.48 277.831 28.28C277.831 29.14 276.991 29.42 276.291 29.42C275.251 29.42 274.351 28.9 273.831 28.22L272.251 29.7C273.171 30.72 274.711 31.28 276.191 31.28C278.291 31.28 280.191 30.42 280.191 28.08C280.191 26.2 278.511 25.56 277.091 25.22C275.751 24.9 275.011 24.7 275.011 23.96C275.011 23.2 275.791 22.92 276.551 22.92C277.431 22.92 278.231 23.4 278.651 23.96L280.211 22.58Z" fill="#393A3D"/>
<rect x="1" y="1" width="307" height="46" rx="3" stroke="#6B6C72" stroke-width="2"/>
</svg>
