<svg width="251" height="36" viewBox="0 0 251 36" fill="none" xmlns="http://www.w3.org/2000/svg">
<rect width="251" height="36" rx="4" fill="#2CA01C"/>
<path d="M32.7657 13.6C31.9017 12.784 30.6057 12.384 29.4697 12.384C27.4217 12.384 25.3257 13.408 25.3257 15.712C25.3257 17.824 26.8137 18.496 28.1897 18.928C29.6137 19.376 30.7977 19.712 30.7977 20.896C30.7977 22.112 29.6937 22.576 28.7497 22.576C27.8537 22.576 26.8297 22.096 26.2697 21.328L24.8297 22.672C25.7257 23.728 27.2457 24.288 28.7177 24.288C30.9417 24.288 32.8457 23.104 32.8457 20.672C32.8457 18.448 30.9897 17.808 29.5337 17.36C28.2537 16.96 27.3737 16.656 27.3737 15.616C27.3737 14.512 28.4457 14.064 29.3737 14.064C30.1737 14.064 31.0217 14.48 31.4537 15.04L32.7657 13.6ZM36.2412 19.392C36.3212 18.32 37.2332 17.536 38.3692 17.536C39.6172 17.536 40.1772 18.4 40.1772 19.392H36.2412ZM42.0972 20.256C42.0972 17.488 40.5292 16.096 38.3852 16.096C36.0652 16.096 34.3212 17.728 34.3212 20.208C34.3212 22.704 36.0812 24.224 38.4492 24.224C39.9052 24.224 40.9932 23.712 41.7452 22.688L40.4652 21.664C40.0332 22.272 39.3932 22.656 38.4332 22.656C37.3132 22.656 36.3212 21.856 36.2412 20.768H42.0812C42.0972 20.592 42.0972 20.432 42.0972 20.256ZM54.5167 17.296C53.9087 16.544 52.7407 16.096 51.6207 16.096C49.3647 16.096 47.5087 17.664 47.5087 20.16C47.5087 22.72 49.3967 24.224 51.6687 24.224C52.8047 24.224 53.8607 23.84 54.5007 23.152L53.3007 21.936C52.9327 22.384 52.2767 22.624 51.6847 22.624C50.2287 22.624 49.5087 21.36 49.5087 20.16C49.5087 18.96 50.2127 17.696 51.6207 17.696C52.2447 17.696 52.9007 18.016 53.2047 18.448L54.5167 17.296ZM55.3212 20.128C55.3212 22.544 57.1772 24.224 59.4972 24.224C61.8172 24.224 63.6732 22.544 63.6732 20.128C63.6732 17.712 61.8172 16.096 59.4972 16.096C57.1772 16.096 55.3212 17.712 55.3212 20.128ZM57.2732 20.128C57.2732 18.928 57.9772 17.664 59.4972 17.664C61.0172 17.664 61.7212 18.928 61.7212 20.128C61.7212 21.328 61.0172 22.624 59.4972 22.624C57.9772 22.624 57.2732 21.328 57.2732 20.128ZM65.5348 24H67.4548V19.776C67.4548 18.752 68.0308 17.696 69.2468 17.696C70.4788 17.696 70.6868 18.832 70.6868 19.744V24H72.6068V19.2C72.6068 17.632 71.7748 16.096 69.7748 16.096C68.6388 16.096 67.7268 16.784 67.3908 17.552H67.3588V16.32H65.5348V24ZM74.8473 24H76.7673V19.776C76.7673 18.752 77.3433 17.696 78.5593 17.696C79.7913 17.696 79.9993 18.832 79.9993 19.744V24H81.9193V19.2C81.9193 17.632 81.0873 16.096 79.0873 16.096C77.9513 16.096 77.0393 16.784 76.7033 17.552H76.6713V16.32H74.8473V24ZM85.6318 19.392C85.7118 18.32 86.6238 17.536 87.7598 17.536C89.0078 17.536 89.5678 18.4 89.5678 19.392H85.6318ZM91.4878 20.256C91.4878 17.488 89.9198 16.096 87.7758 16.096C85.4558 16.096 83.7118 17.728 83.7118 20.208C83.7118 22.704 85.4718 24.224 87.8398 24.224C89.2958 24.224 90.3838 23.712 91.1358 22.688L89.8558 21.664C89.4238 22.272 88.7838 22.656 87.8238 22.656C86.7038 22.656 85.7118 21.856 85.6318 20.768H91.4718C91.4878 20.592 91.4878 20.432 91.4878 20.256ZM99.9073 17.296C99.2993 16.544 98.1313 16.096 97.0113 16.096C94.7553 16.096 92.8993 17.664 92.8993 20.16C92.8993 22.72 94.7873 24.224 97.0593 24.224C98.1953 24.224 99.2513 23.84 99.8913 23.152L98.6913 21.936C98.3233 22.384 97.6673 22.624 97.0753 22.624C95.6193 22.624 94.8993 21.36 94.8993 20.16C94.8993 18.96 95.6033 17.696 97.0113 17.696C97.6353 17.696 98.2913 18.016 98.5953 18.448L99.9073 17.296ZM101.4 17.856V21.44C101.4 22.912 101.864 24.16 103.896 24.16C104.328 24.16 104.84 24.08 105.176 23.952L105.112 22.448C104.888 22.56 104.552 22.608 104.296 22.608C103.448 22.608 103.288 22.112 103.288 21.424V17.856H105.208V16.32H103.288V14.096H101.4V16.32H100.056V17.856H101.4ZM108.069 19.392C108.149 18.32 109.061 17.536 110.197 17.536C111.445 17.536 112.005 18.4 112.005 19.392H108.069ZM113.925 20.256C113.925 17.488 112.357 16.096 110.213 16.096C107.893 16.096 106.149 17.728 106.149 20.208C106.149 22.704 107.909 24.224 110.277 24.224C111.733 24.224 112.821 23.712 113.573 22.688L112.293 21.664C111.861 22.272 111.221 22.656 110.261 22.656C109.141 22.656 108.149 21.856 108.069 20.768H113.909C113.925 20.592 113.925 20.432 113.925 20.256ZM115.785 24H117.705V19.888C117.705 19.328 118.041 17.824 119.769 17.824C119.945 17.824 120.105 17.84 120.361 17.904V16.144C120.233 16.112 120.041 16.096 119.897 16.096C118.889 16.096 118.073 16.72 117.657 17.6H117.625V16.32H115.785V24ZM130.381 24H132.173V19.328C132.173 17.792 131.501 16.096 128.749 16.096C127.581 16.096 126.365 16.512 125.501 17.312L126.493 18.48C126.989 17.984 127.773 17.6 128.589 17.6C129.549 17.6 130.349 18.064 130.349 19.008V19.2C127.949 19.2 125.069 19.52 125.069 21.808C125.069 23.6 126.717 24.192 127.949 24.192C129.037 24.192 129.949 23.696 130.333 23.024H130.381V24ZM130.349 20.768C130.349 21.984 129.645 22.736 128.333 22.736C127.677 22.736 126.989 22.512 126.989 21.776C126.989 20.64 128.701 20.496 129.917 20.496H130.349V20.768ZM128.237 12.672H126.061L128.317 14.976H129.821L128.237 12.672ZM150.714 22.368H147.914V22.336C148.922 21.616 149.93 20.224 149.93 18.192C149.93 14.752 147.386 12.384 143.914 12.384C140.442 12.384 137.85 14.752 137.85 18.192C137.85 21.872 140.266 24 143.882 24H150.714V22.368ZM143.914 14.192C146.202 14.192 147.738 15.888 147.738 18.192C147.738 20.608 146.122 22.24 143.882 22.24C141.61 22.24 140.058 20.608 140.058 18.192C140.058 15.888 141.722 14.192 143.914 14.192ZM159.043 16.32H157.123V20.544C157.123 21.568 156.547 22.624 155.331 22.624C154.099 22.624 153.891 21.488 153.891 20.576V16.32H151.971V21.12C151.971 22.688 152.803 24.224 154.803 24.224C155.939 24.224 156.851 23.536 157.187 22.768H157.219V24H159.043V16.32ZM161.379 24H163.299V16.32H161.379V24ZM161.107 13.712C161.107 14.32 161.619 14.864 162.323 14.864C163.027 14.864 163.571 14.368 163.571 13.712C163.571 13.056 163.027 12.56 162.323 12.56C161.619 12.56 161.107 13.104 161.107 13.712ZM172.189 17.296C171.581 16.544 170.413 16.096 169.293 16.096C167.037 16.096 165.181 17.664 165.181 20.16C165.181 22.72 167.069 24.224 169.341 24.224C170.477 24.224 171.533 23.84 172.173 23.152L170.973 21.936C170.605 22.384 169.949 22.624 169.357 22.624C167.901 22.624 167.181 21.36 167.181 20.16C167.181 18.96 167.885 17.696 169.293 17.696C169.917 17.696 170.573 18.016 170.877 18.448L172.189 17.296ZM173.473 24H175.393V20.064H175.441L178.481 24H181.025L177.489 19.792L180.817 16.32H178.353L175.441 19.552H175.393V11.904H173.473V24ZM182.225 24H186.305C188.449 24 190.593 23.168 190.593 20.704C190.593 19.184 189.569 18.224 188.145 18.032V18C189.313 17.648 190.113 16.8 190.113 15.52C190.113 13.456 188.353 12.672 186.641 12.672H182.225V24ZM184.241 14.336H185.857C187.377 14.336 188.097 14.736 188.097 15.744C188.097 16.72 187.377 17.28 186.033 17.28H184.241V14.336ZM184.241 19.008H186.129C187.761 19.008 188.577 19.424 188.577 20.608C188.577 22.096 187.089 22.304 186.049 22.304H184.241V19.008ZM192.04 20.128C192.04 22.544 193.896 24.224 196.216 24.224C198.536 24.224 200.392 22.544 200.392 20.128C200.392 17.712 198.536 16.096 196.216 16.096C193.896 16.096 192.04 17.712 192.04 20.128ZM193.992 20.128C193.992 18.928 194.696 17.664 196.216 17.664C197.736 17.664 198.44 18.928 198.44 20.128C198.44 21.328 197.736 22.624 196.216 22.624C194.696 22.624 193.992 21.328 193.992 20.128ZM201.806 20.128C201.806 22.544 203.662 24.224 205.982 24.224C208.302 24.224 210.158 22.544 210.158 20.128C210.158 17.712 208.302 16.096 205.982 16.096C203.662 16.096 201.806 17.712 201.806 20.128ZM203.758 20.128C203.758 18.928 204.462 17.664 205.982 17.664C207.502 17.664 208.206 18.928 208.206 20.128C208.206 21.328 207.502 22.624 205.982 22.624C204.462 22.624 203.758 21.328 203.758 20.128ZM212.051 24H213.971V20.064H214.019L217.059 24H219.603L216.067 19.792L219.395 16.32H216.931L214.019 19.552H213.971V11.904H212.051V24ZM226.069 17.264C225.445 16.48 224.293 16.096 223.189 16.096C221.669 16.096 220.133 16.832 220.133 18.544C220.133 19.984 221.269 20.448 222.405 20.72C223.573 20.992 224.165 21.184 224.165 21.824C224.165 22.512 223.493 22.736 222.933 22.736C222.101 22.736 221.381 22.32 220.965 21.776L219.701 22.96C220.437 23.776 221.669 24.224 222.853 24.224C224.533 24.224 226.053 23.536 226.053 21.664C226.053 20.16 224.709 19.648 223.573 19.376C222.501 19.12 221.909 18.96 221.909 18.368C221.909 17.76 222.533 17.536 223.141 17.536C223.845 17.536 224.485 17.92 224.821 18.368L226.069 17.264Z" fill="white"/>
</svg>
