<svg width="184" height="24" viewBox="0 0 184 24" fill="none" xmlns="http://www.w3.org/2000/svg">
<rect width="184" height="24" rx="4" fill="#2CA01C"/>
<path d="M22.4493 8.2C21.8013 7.588 20.8293 7.288 19.9773 7.288C18.4413 7.288 16.8693 8.056 16.8693 9.784C16.8693 11.368 17.9853 11.872 19.0173 12.196C20.0853 12.532 20.9733 12.784 20.9733 13.672C20.9733 14.584 20.1453 14.932 19.4373 14.932C18.7653 14.932 17.9973 14.572 17.5773 13.996L16.4973 15.004C17.1693 15.796 18.3093 16.216 19.4133 16.216C21.0813 16.216 22.5093 15.328 22.5093 13.504C22.5093 11.836 21.1173 11.356 20.0253 11.02C19.0653 10.72 18.4053 10.492 18.4053 9.712C18.4053 8.884 19.2093 8.548 19.9053 8.548C20.5053 8.548 21.1413 8.86 21.4653 9.28L22.4493 8.2ZM25.0559 12.544C25.1159 11.74 25.7999 11.152 26.6519 11.152C27.5879 11.152 28.0079 11.8 28.0079 12.544H25.0559ZM29.4479 13.192C29.4479 11.116 28.2719 10.072 26.6639 10.072C24.9239 10.072 23.6159 11.296 23.6159 13.156C23.6159 15.028 24.9359 16.168 26.7119 16.168C27.8039 16.168 28.6199 15.784 29.1839 15.016L28.2239 14.248C27.8999 14.704 27.4199 14.992 26.6999 14.992C25.8599 14.992 25.1159 14.392 25.0559 13.576H29.4359C29.4479 13.444 29.4479 13.324 29.4479 13.192ZM38.7625 10.972C38.3065 10.408 37.4305 10.072 36.5905 10.072C34.8985 10.072 33.5065 11.248 33.5065 13.12C33.5065 15.04 34.9225 16.168 36.6265 16.168C37.4785 16.168 38.2705 15.88 38.7505 15.364L37.8505 14.452C37.5745 14.788 37.0825 14.968 36.6385 14.968C35.5465 14.968 35.0065 14.02 35.0065 13.12C35.0065 12.22 35.5345 11.272 36.5905 11.272C37.0585 11.272 37.5505 11.512 37.7785 11.836L38.7625 10.972ZM39.3659 13.096C39.3659 14.908 40.7579 16.168 42.4979 16.168C44.2379 16.168 45.6299 14.908 45.6299 13.096C45.6299 11.284 44.2379 10.072 42.4979 10.072C40.7579 10.072 39.3659 11.284 39.3659 13.096ZM40.8299 13.096C40.8299 12.196 41.3579 11.248 42.4979 11.248C43.6379 11.248 44.1659 12.196 44.1659 13.096C44.1659 13.996 43.6379 14.968 42.4979 14.968C41.3579 14.968 40.8299 13.996 40.8299 13.096ZM47.0261 16H48.4661V12.832C48.4661 12.064 48.8981 11.272 49.8101 11.272C50.7341 11.272 50.8901 12.124 50.8901 12.808V16H52.3301V12.4C52.3301 11.224 51.7061 10.072 50.2061 10.072C49.3541 10.072 48.6701 10.588 48.4181 11.164H48.3941V10.24H47.0261V16ZM54.0105 16H55.4505V12.832C55.4505 12.064 55.8825 11.272 56.7945 11.272C57.7185 11.272 57.8745 12.124 57.8745 12.808V16H59.3145V12.4C59.3145 11.224 58.6905 10.072 57.1905 10.072C56.3385 10.072 55.6545 10.588 55.4025 11.164H55.3785V10.24H54.0105V16ZM62.0989 12.544C62.1589 11.74 62.8429 11.152 63.6949 11.152C64.6309 11.152 65.0509 11.8 65.0509 12.544H62.0989ZM66.4909 13.192C66.4909 11.116 65.3149 10.072 63.7069 10.072C61.9669 10.072 60.6589 11.296 60.6589 13.156C60.6589 15.028 61.9789 16.168 63.7549 16.168C64.8469 16.168 65.6629 15.784 66.2269 15.016L65.2669 14.248C64.9429 14.704 64.4629 14.992 63.7429 14.992C62.9029 14.992 62.1589 14.392 62.0989 13.576H66.4789C66.4909 13.444 66.4909 13.324 66.4909 13.192ZM72.8055 10.972C72.3495 10.408 71.4735 10.072 70.6335 10.072C68.9415 10.072 67.5495 11.248 67.5495 13.12C67.5495 15.04 68.9655 16.168 70.6695 16.168C71.5215 16.168 72.3135 15.88 72.7935 15.364L71.8935 14.452C71.6175 14.788 71.1255 14.968 70.6815 14.968C69.5895 14.968 69.0495 14.02 69.0495 13.12C69.0495 12.22 69.5775 11.272 70.6335 11.272C71.1015 11.272 71.5935 11.512 71.8215 11.836L72.8055 10.972ZM73.9249 11.392V14.08C73.9249 15.184 74.2729 16.12 75.7969 16.12C76.1209 16.12 76.5049 16.06 76.7569 15.964L76.7089 14.836C76.5409 14.92 76.2889 14.956 76.0969 14.956C75.4609 14.956 75.3409 14.584 75.3409 14.068V11.392H76.7809V10.24H75.3409V8.572H73.9249V10.24H72.9169V11.392H73.9249ZM78.927 12.544C78.987 11.74 79.671 11.152 80.523 11.152C81.459 11.152 81.879 11.8 81.879 12.544H78.927ZM83.319 13.192C83.319 11.116 82.143 10.072 80.535 10.072C78.795 10.072 77.487 11.296 77.487 13.156C77.487 15.028 78.807 16.168 80.583 16.168C81.675 16.168 82.491 15.784 83.055 15.016L82.095 14.248C81.771 14.704 81.291 14.992 80.571 14.992C79.731 14.992 78.987 14.392 78.927 13.576H83.307C83.319 13.444 83.319 13.324 83.319 13.192ZM84.7136 16H86.1536V12.916C86.1536 12.496 86.4056 11.368 87.7016 11.368C87.8336 11.368 87.9536 11.38 88.1456 11.428V10.108C88.0496 10.084 87.9056 10.072 87.7976 10.072C87.0416 10.072 86.4296 10.54 86.1176 11.2H86.0936V10.24H84.7136V16ZM95.6607 16H97.0047V12.496C97.0047 11.344 96.5007 10.072 94.4367 10.072C93.5607 10.072 92.6487 10.384 92.0007 10.984L92.7447 11.86C93.1167 11.488 93.7047 11.2 94.3167 11.2C95.0367 11.2 95.6367 11.548 95.6367 12.256V12.4C93.8367 12.4 91.6767 12.64 91.6767 14.356C91.6767 15.7 92.9127 16.144 93.8367 16.144C94.6527 16.144 95.3367 15.772 95.6247 15.268H95.6607V16ZM95.6367 13.576C95.6367 14.488 95.1087 15.052 94.1247 15.052C93.6327 15.052 93.1167 14.884 93.1167 14.332C93.1167 13.48 94.4007 13.372 95.3127 13.372H95.6367V13.576ZM94.0527 7.504H92.4207L94.1127 9.232H95.2407L94.0527 7.504ZM110.91 14.776H108.81V14.752C109.566 14.212 110.322 13.168 110.322 11.644C110.322 9.064 108.414 7.288 105.81 7.288C103.206 7.288 101.262 9.064 101.262 11.644C101.262 14.404 103.074 16 105.786 16H110.91V14.776ZM105.81 8.644C107.526 8.644 108.678 9.916 108.678 11.644C108.678 13.456 107.466 14.68 105.786 14.68C104.082 14.68 102.918 13.456 102.918 11.644C102.918 9.916 104.166 8.644 105.81 8.644ZM117.157 10.24H115.717V13.408C115.717 14.176 115.285 14.968 114.373 14.968C113.449 14.968 113.293 14.116 113.293 13.432V10.24H111.853V13.84C111.853 15.016 112.477 16.168 113.977 16.168C114.829 16.168 115.513 15.652 115.765 15.076H115.789V16H117.157V10.24ZM118.909 16H120.349V10.24H118.909V16ZM118.705 8.284C118.705 8.74 119.089 9.148 119.617 9.148C120.145 9.148 120.553 8.776 120.553 8.284C120.553 7.792 120.145 7.42 119.617 7.42C119.089 7.42 118.705 7.828 118.705 8.284ZM127.016 10.972C126.56 10.408 125.684 10.072 124.844 10.072C123.152 10.072 121.76 11.248 121.76 13.12C121.76 15.04 123.176 16.168 124.88 16.168C125.732 16.168 126.524 15.88 127.004 15.364L126.104 14.452C125.828 14.788 125.336 14.968 124.892 14.968C123.8 14.968 123.26 14.02 123.26 13.12C123.26 12.22 123.788 11.272 124.844 11.272C125.312 11.272 125.804 11.512 126.032 11.836L127.016 10.972ZM127.98 16H129.42V13.048H129.456L131.736 16H133.644L130.992 12.844L133.488 10.24H131.64L129.456 12.664H129.42V6.928H127.98V16ZM134.543 16H137.603C139.211 16 140.819 15.376 140.819 13.528C140.819 12.388 140.051 11.668 138.983 11.524V11.5C139.859 11.236 140.459 10.6 140.459 9.64C140.459 8.092 139.139 7.504 137.855 7.504H134.543V16ZM136.055 8.752H137.267C138.407 8.752 138.947 9.052 138.947 9.808C138.947 10.54 138.407 10.96 137.399 10.96H136.055V8.752ZM136.055 12.256H137.471C138.695 12.256 139.307 12.568 139.307 13.456C139.307 14.572 138.191 14.728 137.411 14.728H136.055V12.256ZM141.905 13.096C141.905 14.908 143.297 16.168 145.037 16.168C146.777 16.168 148.169 14.908 148.169 13.096C148.169 11.284 146.777 10.072 145.037 10.072C143.297 10.072 141.905 11.284 141.905 13.096ZM143.369 13.096C143.369 12.196 143.897 11.248 145.037 11.248C146.177 11.248 146.705 12.196 146.705 13.096C146.705 13.996 146.177 14.968 145.037 14.968C143.897 14.968 143.369 13.996 143.369 13.096ZM149.229 13.096C149.229 14.908 150.621 16.168 152.361 16.168C154.101 16.168 155.493 14.908 155.493 13.096C155.493 11.284 154.101 10.072 152.361 10.072C150.621 10.072 149.229 11.284 149.229 13.096ZM150.693 13.096C150.693 12.196 151.221 11.248 152.361 11.248C153.501 11.248 154.029 12.196 154.029 13.096C154.029 13.996 153.501 14.968 152.361 14.968C151.221 14.968 150.693 13.996 150.693 13.096ZM156.913 16H158.353V13.048H158.389L160.669 16H162.577L159.925 12.844L162.421 10.24H160.573L158.389 12.664H158.353V6.928H156.913V16ZM167.427 10.948C166.959 10.36 166.095 10.072 165.267 10.072C164.127 10.072 162.975 10.624 162.975 11.908C162.975 12.988 163.827 13.336 164.679 13.54C165.555 13.744 165.999 13.888 165.999 14.368C165.999 14.884 165.495 15.052 165.075 15.052C164.451 15.052 163.911 14.74 163.599 14.332L162.651 15.22C163.203 15.832 164.127 16.168 165.015 16.168C166.275 16.168 167.415 15.652 167.415 14.248C167.415 13.12 166.407 12.736 165.555 12.532C164.751 12.34 164.307 12.22 164.307 11.776C164.307 11.32 164.775 11.152 165.231 11.152C165.759 11.152 166.239 11.44 166.491 11.776L167.427 10.948Z" fill="white"/>
</svg>
