<svg width="113" height="24" viewBox="0 0 113 24" fill="none" xmlns="http://www.w3.org/2000/svg">
<rect x="1" y="1" width="111" height="22" rx="3" fill="#0077C5" fill-opacity="0.1"/>
<path d="M14.4883 8.2C13.8403 7.588 12.8683 7.288 12.0163 7.288C10.4803 7.288 8.90833 8.056 8.90833 9.784C8.90833 11.368 10.0243 11.872 11.0563 12.196C12.1243 12.532 13.0123 12.784 13.0123 13.672C13.0123 14.584 12.1843 14.932 11.4763 14.932C10.8043 14.932 10.0363 14.572 9.61633 13.996L8.53633 15.004C9.20833 15.796 10.3483 16.216 11.4523 16.216C13.1203 16.216 14.5483 15.328 14.5483 13.504C14.5483 11.836 13.1563 11.356 12.0643 11.02C11.1043 10.72 10.4443 10.492 10.4443 9.712C10.4443 8.884 11.2483 8.548 11.9443 8.548C12.5443 8.548 13.1803 8.86 13.5043 9.28L14.4883 8.2ZM16.015 16H17.455V10.24H16.015V16ZM15.811 8.284C15.811 8.74 16.195 9.148 16.723 9.148C17.251 9.148 17.659 8.776 17.659 8.284C17.659 7.792 17.251 7.42 16.723 7.42C16.195 7.42 15.811 7.828 15.811 8.284ZM23.6899 10.24V11.104H23.6659C23.2459 10.408 22.4899 10.072 21.6859 10.072C19.9459 10.072 18.8659 11.428 18.8659 13.096C18.8659 14.728 19.9819 16.096 21.7099 16.096C22.5019 16.096 23.1739 15.796 23.5939 15.232H23.6179V15.652C23.6179 16.792 23.1859 17.632 21.7939 17.632C21.0739 17.632 20.3299 17.344 19.7779 16.816L18.9499 17.932C19.6939 18.544 20.8699 18.88 21.8059 18.88C24.0499 18.88 25.0579 17.56 25.0579 15.484V10.24H23.6899ZM21.9859 11.248C23.0299 11.248 23.6899 12.088 23.6899 13.084C23.6899 14.044 23.0419 14.908 21.9739 14.908C20.9419 14.908 20.3299 13.996 20.3299 13.084C20.3299 12.064 20.9419 11.248 21.9859 11.248ZM26.7839 16H28.2239V12.832C28.2239 12.064 28.6559 11.272 29.5679 11.272C30.4919 11.272 30.6479 12.124 30.6479 12.808V16H32.0879V12.4C32.0879 11.224 31.4639 10.072 29.9639 10.072C29.1119 10.072 28.4279 10.588 28.1759 11.164H28.1519V10.24H26.7839V16ZM36.7923 16H38.2323V10.24H36.7923V16ZM36.5883 8.284C36.5883 8.74 36.9723 9.148 37.5003 9.148C38.0283 9.148 38.4363 8.776 38.4363 8.284C38.4363 7.792 38.0283 7.42 37.5003 7.42C36.9723 7.42 36.5883 7.828 36.5883 8.284ZM39.9792 16H41.4192V12.832C41.4192 12.064 41.8512 11.272 42.7632 11.272C43.6872 11.272 43.8432 12.124 43.8432 12.808V16H45.2832V12.4C45.2832 11.224 44.6592 10.072 43.1592 10.072C42.3072 10.072 41.6232 10.588 41.3712 11.164H41.3472V10.24H39.9792V16ZM51.1516 16H52.6156L53.9116 11.968H53.9356L55.2436 16H56.7076L58.6996 10.24H57.1996L55.9756 14.368H55.9516L54.7036 10.24H53.1676L51.9316 14.368H51.9076L50.7076 10.24H49.1476L51.1516 16ZM59.6321 16H61.0721V10.24H59.6321V16ZM59.4281 8.284C59.4281 8.74 59.8121 9.148 60.3401 9.148C60.8681 9.148 61.2761 8.776 61.2761 8.284C61.2761 7.792 60.8681 7.42 60.3401 7.42C59.8121 7.42 59.4281 7.828 59.4281 8.284ZM62.9991 11.392V14.08C62.9991 15.184 63.3471 16.12 64.8711 16.12C65.1951 16.12 65.5791 16.06 65.8311 15.964L65.7831 14.836C65.6151 14.92 65.3631 14.956 65.1711 14.956C64.5351 14.956 64.4151 14.584 64.4151 14.068V11.392H65.8551V10.24H64.4151V8.572H62.9991V10.24H61.9911V11.392H62.9991ZM70.1012 10.072C69.2492 10.072 68.6132 10.564 68.3852 11.044H68.3612V6.928H66.9212V16H68.3612V12.856C68.3612 12.088 68.8052 11.308 69.7172 11.308C70.6412 11.308 70.7852 12.148 70.7852 12.832V16H72.2252V12.4C72.2252 11.224 71.6012 10.072 70.1012 10.072ZM76.977 16H78.489V7.504H76.977V16ZM80.2917 16H81.7317V12.832C81.7317 12.064 82.1637 11.272 83.0757 11.272C83.9997 11.272 84.1557 12.124 84.1557 12.808V16H85.5957V12.4C85.5957 11.224 84.9717 10.072 83.4717 10.072C82.6197 10.072 81.9357 10.588 81.6837 11.164H81.6597V10.24H80.2917V16ZM87.4561 11.392V14.08C87.4561 15.184 87.8041 16.12 89.3281 16.12C89.6521 16.12 90.0361 16.06 90.2881 15.964L90.2401 14.836C90.0721 14.92 89.8201 14.956 89.6281 14.956C88.9921 14.956 88.8721 14.584 88.8721 14.068V11.392H90.3121V10.24H88.8721V8.572H87.4561V10.24H86.4481V11.392H87.4561ZM96.6102 10.24H95.1702V13.408C95.1702 14.176 94.7382 14.968 93.8262 14.968C92.9022 14.968 92.7462 14.116 92.7462 13.432V10.24H91.3062V13.84C91.3062 15.016 91.9302 16.168 93.4302 16.168C94.2822 16.168 94.9662 15.652 95.2182 15.076H95.2422V16H96.6102V10.24ZM98.3626 16H99.8026V10.24H98.3626V16ZM98.1586 8.284C98.1586 8.74 98.5426 9.148 99.0706 9.148C99.5986 9.148 100.007 8.776 100.007 8.284C100.007 7.792 99.5986 7.42 99.0706 7.42C98.5426 7.42 98.1586 7.828 98.1586 8.284ZM101.73 11.392V14.08C101.73 15.184 102.078 16.12 103.602 16.12C103.926 16.12 104.31 16.06 104.562 15.964L104.514 14.836C104.346 14.92 104.094 14.956 103.902 14.956C103.266 14.956 103.146 14.584 103.146 14.068V11.392H104.586V10.24H103.146V8.572H101.73V10.24H100.722V11.392H101.73Z" fill="#0077C5"/>
<rect x="1" y="1" width="111" height="22" rx="3" stroke="#0077C5" stroke-width="2"/>
</svg>
